<svg width="146.000000" height="50.000000" viewBox="0 0 146 50" fill="none" xmlns="http://www.w3.org/2000/svg" xmlns:xlink="http://www.w3.org/1999/xlink">
	<desc>
			Created with Pixso.
	</desc>
	<defs/>
	<path id="path2" d="M17.1 47.15L9.96 35.18L17.5 27.04L11.41 27.04L4.92 34.16L4.92 27.04L0 27.04L0 47.15L4.92 47.15L4.92 40.85L6.63 38.9L11.29 47.15L17.1 47.15Z" fill="#FFFFFF" fill-opacity="1.000000" fill-rule="evenodd"/>
	<path id="path4" d="M57.93 47.15L57.93 27.04L41.15 27.04L41.15 47.15L46.63 47.15L46.63 31.45L52.45 31.45L52.45 47.15L57.93 47.15Z" fill="#FFFFFF" fill-opacity="1.000000" fill-rule="evenodd"/>
	<path id="path6" d="M79.75 47.15L79.75 27.04L75.04 27.04L68.02 38L68.02 27.04L62.63 27.04L62.63 47.15L67.34 47.15L74.36 36.19L74.36 47.15L79.75 47.15Z" fill="#FFFFFF" fill-opacity="1.000000" fill-rule="evenodd"/>
	<path id="path8" d="M122.31 37.1L122.31 35.32C122.31 32.41 121.65 30.6 120.13 29.13C118.55 27.61 116.55 26.87 114.06 26.87C111.6 26.87 109.59 27.61 108.04 29.13C106.34 30.77 105.86 32.46 105.86 36.39L105.86 37.66C105.86 40.17 105.83 42.91 108.04 45.06C109.62 46.58 111.6 47.32 114.12 47.32C116.58 47.32 118.58 46.58 120.13 45.06C122.44 42.8 122.31 40 122.31 37.1ZM117 37.63C117 40.2 116.79 41.33 116.21 42.01C115.73 42.57 114.94 42.91 114.09 42.91C113.24 42.91 112.45 42.57 111.96 42.01C111.38 41.33 111.17 40.2 111.17 37.63L111.17 36.25C111.17 34.36 111.38 32.86 111.96 32.15C112.45 31.59 113.21 31.28 114.09 31.28C114.97 31.28 115.73 31.59 116.21 32.15C116.79 32.86 117 34.36 117 36.25L117 37.63Z" fill="#FFFFFF" fill-opacity="1.000000" fill-rule="evenodd"/>
	<path id="path10" d="M146 47.15L146 27.04L141.04 27.04L136.43 35.91L131.81 27.04L126.86 27.04L126.86 47.15L131.9 47.15L131.9 37.52L134.81 42.49L138.04 42.49L140.95 37.52L140.95 47.15L146 47.15Z" fill="#FFFFFF" fill-opacity="1.000000" fill-rule="evenodd"/>
	<path id="path12" d="M95.63 4.51L108.86 17.78L108.98 17.65C108.19 16.81 107.41 15.95 106.6 15.11C103.81 12.22 101.01 9.33 98.21 6.44C97.47 5.67 96.72 4.9 95.98 4.11C95.85 3.97 95.74 3.89 95.63 3.88C95.51 3.89 95.4 3.97 95.27 4.11C94.54 4.9 93.79 5.67 93.04 6.44C90.24 9.33 87.44 12.22 84.65 15.11C83.85 15.95 83.07 16.81 82.28 17.65L82.39 17.78L95.63 4.51ZM102.58 6.97C100.57 4.85 98.56 2.73 96.54 0.61C95.74 -0.22 95.51 -0.21 94.7 0.62C91.77 3.59 88.84 6.57 85.93 9.56C84.9 10.61 83.91 11.7 82.93 12.79C81.48 14.42 80.05 16.06 78.61 17.71C77.99 18.43 77.4 19.17 76.79 19.9L76.92 20.04C83.48 14.3 89.76 8.29 95.67 1.86C95.89 2.06 96.04 2.2 96.18 2.34C98.1 4.25 100.02 6.15 101.94 8.06C102.27 8.38 102.56 8.74 102.92 9C103.13 9.15 103.49 9.27 103.71 9.19C103.88 9.13 104.03 8.76 104.03 8.51L104.03 8.02L104.03 6.03L105 6.03C105.59 6.02 106.2 6.03 106.88 6.03C106.88 8.07 106.89 10.02 106.88 11.98C106.87 12.48 107.02 12.87 107.4 13.22C108.17 13.91 108.91 14.64 109.65 15.37C111.04 16.74 112.42 18.11 113.8 19.48C114.01 19.68 114.23 19.86 114.44 20.05C114.49 19.92 114.47 19.87 114.43 19.84C112.34 17.61 110.26 15.38 108.16 13.16C107.72 12.69 107.45 12.23 107.49 11.53C107.58 9.58 107.58 7.62 107.61 5.66C107.62 5.3 107.46 5.11 107.07 5.1C105.91 5.1 104.76 5.09 103.6 5.07C103.19 5.06 103.03 5.22 103 5.58L103 5.58L103 7.38C102.83 7.22 102.64 7.04 102.58 6.97ZM95.36 19.97L95.36 16.64L91.99 16.64L91.99 19.97L95.36 19.97ZM99.25 16.64L95.98 16.64L95.98 19.98L99.25 19.98L99.25 16.64ZM95.98 12.71L95.98 16.04L99.26 16.04L99.26 12.71L95.98 12.71ZM95.35 16.05L95.35 12.71L92.01 12.71L92.01 16.05L95.35 16.05Z" fill="#FFFFFF" fill-opacity="1.000000" fill-rule="evenodd"/>
	<path id="path14" d="M90.2 42.74C91.28 39.81 92.06 36.79 92.06 32.01L92.06 31.45L95.41 31.45L95.41 42.74L90.2 42.74ZM87.81 47.15L97.97 47.15L97.97 50L102.86 50L102.86 42.74L100.5 42.74L100.5 27.04L87.06 27.04L87.06 27.89C87.06 35.01 86.41 38.99 84.96 42.74L82.92 42.74L82.92 50L87.81 50L87.81 47.15Z" fill="#FFFFFF" fill-opacity="1.000000" fill-rule="evenodd"/>
	<path id="path16" d="M19.23 27.04L26.32 41.75L23.73 47.15L24.38 47.15L28.54 47.15L38.31 27.04L33.3 27.04L28.97 36.21L24.41 27.04L19.23 27.04Z" fill="#FFFFFF" fill-opacity="1.000000" fill-rule="evenodd"/>
</svg>
