<svg width="23.000000" height="15.000000" viewBox="0 0 23 15" fill="none" xmlns="http://www.w3.org/2000/svg" xmlns:xlink="http://www.w3.org/1999/xlink">
	<desc>
			Created with Pixso.
	</desc>
	<defs/>
	<path id="Vector" d="M19.79 7.38C19 8.17 17.72 8.17 16.93 7.38C16.14 6.59 16.14 5.31 16.93 4.52C17.72 3.73 19 3.73 19.79 4.52C20.58 5.31 20.58 6.59 19.79 7.38ZM13.2 5.31C11.98 6.53 10.01 6.53 8.79 5.31C7.58 4.1 7.58 2.12 8.79 0.91C10.01 -0.31 11.98 -0.31 13.2 0.91C14.41 2.12 14.41 4.1 13.2 5.31ZM5.06 7.38C4.27 8.17 2.99 8.17 2.2 7.38C1.41 6.59 1.41 5.31 2.2 4.52C2.99 3.73 4.27 3.73 5.06 4.52C5.85 5.31 5.85 6.59 5.06 7.38ZM22 14L22 12.9C22 11.52 20.88 10.4 19.5 10.4L18.69 10.4M0 14L0 12.9C0 11.52 1.11 10.4 2.5 10.4L3.3 10.4M16.33 14L16.33 12.39C16.33 10.46 14.77 8.89 12.83 8.89L9.16 8.89C7.22 8.89 5.66 10.46 5.66 12.39L5.66 14" stroke="#FFFFFF" stroke-opacity="1.000000" stroke-width="1.500000" stroke-linejoin="round"/>
</svg>
