<svg width="19.000000" height="19.000000" viewBox="0 0 19 19" fill="none" xmlns="http://www.w3.org/2000/svg" xmlns:xlink="http://www.w3.org/1999/xlink">
	<desc>
			Created with Pixso.
	</desc>
	<defs/>
	<path id="Vector" d="M15 14C14.44 14 14 13.55 14 13L14 8C14 7.44 14.44 7 15 7L16 7C17.1 7 18 7.89 18 9L18 12C18 13.1 17.1 14 16 14L15 14ZM2 14C0.89 14 0 13.1 0 12L0 9C0 7.89 0.89 7 2 7L3 7C3.55 7 4 7.44 4 8L4 13C4 13.55 3.55 14 3 14L2 14ZM15.5 7L15.5 6.5C15.5 2.9 12.59 0 9 0C5.41 0 2.5 2.9 2.5 6.5L2.5 7M8.37 18.25C7.68 18.25 7.12 17.69 7.12 17C7.12 16.31 7.68 15.75 8.37 15.75L9.62 15.75C10.31 15.75 10.87 16.31 10.87 17C10.87 17.69 10.31 18.25 9.62 18.25L8.37 18.25ZM10.87 17L13 17C14.1 17 15 16.1 15 15L15 14" stroke="#FFFFFF" stroke-opacity="1.000000" stroke-width="1.500000" stroke-linejoin="round" stroke-linecap="round"/>
</svg>
