<svg width="32.000000" height="32.000000" viewBox="0 0 32 32" fill="none" xmlns="http://www.w3.org/2000/svg" xmlns:xlink="http://www.w3.org/1999/xlink">
	<defs/>
	<path id="path12" d="M16 7.19L27.23 28.36L27.33 28.17C26.66 26.81 26 25.45 25.32 24.11C22.95 19.5 20.57 14.9 18.19 10.28C17.56 9.05 16.92 7.82 16.3 6.56C16.19 6.34 16.09 6.22 16 6.2C15.9 6.22 15.8 6.34 15.69 6.56C15.07 7.82 14.43 9.05 13.8 10.28C11.42 14.9 9.05 19.5 6.67 24.11C5.99 25.45 5.33 26.81 4.66 28.17L4.76 28.36L16 7.19ZM21.9 11.13C20.19 7.75 18.49 4.35 16.77 0.98C16.09 -0.34 15.9 -0.33 15.21 0.99C12.72 5.74 10.23 10.48 7.76 15.25C6.89 16.93 6.05 18.66 5.21 20.41C3.98 23.01 2.76 25.63 1.55 28.26C1.02 29.4 0.51 30.59 0 31.75L0.11 31.97C5.67 22.82 11.01 13.23 16.03 2.97C16.21 3.29 16.34 3.51 16.47 3.74C18.1 6.78 19.73 9.82 21.36 12.86C21.63 13.37 21.88 13.94 22.19 14.36C22.37 14.61 22.68 14.79 22.86 14.67C23.01 14.58 23.13 13.97 23.13 13.59L23.13 12.79L23.13 9.63L23.95 9.63C24.45 9.61 24.97 9.63 25.55 9.63C25.55 12.88 25.56 15.99 25.55 19.11C25.54 19.92 25.67 20.54 25.99 21.09C26.65 22.2 27.28 23.36 27.91 24.52C29.09 26.7 30.26 28.9 31.43 31.09C31.6 31.4 31.79 31.69 31.97 32C32.01 31.79 32 31.71 31.97 31.65C30.19 28.1 28.42 24.54 26.64 21C26.26 20.26 26.04 19.51 26.07 18.4C26.14 15.28 26.14 12.16 26.18 9.04C26.18 8.45 26.04 8.15 25.71 8.15C24.73 8.14 23.75 8.13 22.77 8.09C22.42 8.07 22.28 8.33 22.26 8.9L22.26 8.9L22.26 11.78C22.12 11.53 21.95 11.23 21.9 11.13ZM15.77 31.87L15.77 26.55L12.91 26.55L12.91 31.87L15.77 31.87ZM19.08 26.56L16.3 26.56L16.3 31.88L19.08 31.88L19.08 26.56ZM16.29 20.28L16.29 25.59L19.08 25.59L19.08 20.28L16.29 20.28ZM15.76 25.61L15.76 20.27L12.92 20.27L12.92 25.61L15.76 25.61Z" fill="#FFFFFF" fill-opacity="1.000000" fill-rule="evenodd"/>
</svg>
