<svg width="13.000000" height="13.000000" viewBox="0 0 13 13" fill="none" xmlns="http://www.w3.org/2000/svg" xmlns:xlink="http://www.w3.org/1999/xlink">
	<desc>
			Created with Pixso.
	</desc>
	<defs/>
	<path id="Path" d="M12.4 5.99C12.4 6.42 12.35 6.85 12.26 7.27C12.18 7.68 12.06 8.09 11.89 8.47C11.73 8.85 11.53 9.22 11.3 9.56C11.07 9.9 10.81 10.22 10.52 10.51C10.23 10.79 9.91 11.06 9.57 11.29C9.23 11.52 8.87 11.71 8.49 11.87C8.1 12.04 7.69 12.16 7.28 12.25C6.86 12.33 6.43 12.38 5.99 12.38C5.56 12.38 5.13 12.33 4.71 12.25C4.29 12.16 3.89 12.04 3.5 11.87C3.12 11.71 2.76 11.52 2.42 11.29C2.08 11.06 1.76 10.79 1.47 10.51C1.18 10.22 0.92 9.9 0.69 9.56C0.46 9.22 0.26 8.85 0.1 8.47C-0.07 8.09 -0.19 7.68 -0.28 7.27C-0.36 6.85 -0.4 6.42 -0.4 5.99C-0.4 5.55 -0.36 5.12 -0.28 4.7C-0.19 4.29 -0.07 3.88 0.1 3.5C0.26 3.12 0.46 2.75 0.69 2.41C0.92 2.07 1.18 1.76 1.47 1.47C1.76 1.18 2.08 0.92 2.42 0.69C2.76 0.46 3.12 0.26 3.5 0.1C3.89 -0.07 4.29 -0.19 4.71 -0.28C5.13 -0.36 5.56 -0.4 5.99 -0.4C6.43 -0.4 6.86 -0.36 7.28 -0.28C7.69 -0.19 8.1 -0.07 8.49 0.1C8.87 0.26 9.23 0.46 9.57 0.69C9.91 0.92 10.23 1.18 10.52 1.47C10.81 1.76 11.07 2.07 11.3 2.41C11.53 2.75 11.73 3.12 11.89 3.5C12.06 3.88 12.18 4.29 12.26 4.7C12.35 5.12 12.4 5.55 12.4 5.99ZM3.66 1.05C2.14 1.77 1 3.17 0.65 4.86C0.79 4.86 3.07 4.89 5.69 4.19C4.75 2.52 3.74 1.15 3.66 1.05ZM6.15 5.04C3.33 5.88 0.63 5.82 0.53 5.81C0.53 5.87 0.53 5.93 0.53 5.99C0.53 7.39 1.06 8.67 1.93 9.63C1.93 9.63 3.42 6.98 6.37 6.03C6.44 6 6.52 5.98 6.59 5.96C6.45 5.65 6.3 5.34 6.15 5.04ZM9.6 1.89C8.64 1.04 7.38 0.53 5.99 0.53C5.55 0.53 5.12 0.58 4.71 0.68C4.79 0.79 5.82 2.15 6.75 3.87C8.81 3.09 9.59 1.91 9.6 1.89ZM6.96 6.87C6.95 6.87 6.94 6.87 6.92 6.88C3.7 8 2.65 10.26 2.64 10.29C3.56 11.01 4.73 11.44 5.99 11.44C6.75 11.44 7.47 11.29 8.13 11.01C8.05 10.53 7.73 8.86 6.96 6.87ZM9.05 10.51C10.28 9.69 11.15 8.37 11.39 6.85C11.28 6.82 9.75 6.33 7.99 6.61C8.7 8.58 8.99 10.18 9.05 10.51ZM7.17 4.68C7.3 4.94 7.42 5.2 7.53 5.47C7.57 5.57 7.61 5.66 7.65 5.75C9.53 5.52 11.38 5.91 11.46 5.93C11.45 4.64 10.98 3.45 10.22 2.52C10.21 2.53 9.33 3.8 7.17 4.68Z" fill="#FFFFFF" fill-opacity="1.000000" fill-rule="evenodd"/>
</svg>
