<svg width="24.000000" height="24.000000" viewBox="0 0 24 24" fill="none" xmlns="http://www.w3.org/2000/svg" xmlns:xlink="http://www.w3.org/1999/xlink">
	<desc>
			Created with Pixso.
	</desc>
	<defs/>
	<path id="Message" d="M16.9395 3C18.2805 3 19.5704 3.53003 20.5195 4.48096C21.4695 5.42993 22.0005 6.70996 22.0005 8.05005L22.0005 15.95C22.0005 18.74 19.7305 21 16.9395 21L7.06055 21C4.26953 21 2.00049 18.74 2.00049 15.95L2.00049 8.05005C2.00049 5.26001 4.25952 3 7.06055 3L16.9395 3ZM18.6105 9.45996L18.5305 9.54004L14.0195 13.1499C13.4604 13.5901 12.7695 13.8301 12.0605 13.8301C11.3495 13.8301 10.6705 13.5901 10.1105 13.1499L5.56055 9.6001L5.42944 9.46997C5.20044 9.16992 5.23047 8.73999 5.50049 8.46997C5.75952 8.19995 6.18945 8.16992 6.50049 8.3999L11.0005 12C11.5895 12.481 12.4205 12.481 13.0005 12L17.5095 8.3999C17.6605 8.26001 17.8605 8.18896 18.0704 8.19995C18.2695 8.21997 18.4604 8.31104 18.5995 8.45996C18.8495 8.75 18.8495 9.16992 18.6105 9.45996Z" clip-rule="evenodd" fill="#DE9C8E" fill-opacity="1.000000" fill-rule="evenodd"/>
</svg>
