<svg width="13.000000" height="13.000000" viewBox="0 0 13 13" fill="none" xmlns="http://www.w3.org/2000/svg" xmlns:xlink="http://www.w3.org/1999/xlink">
	<desc>
			Created with Pixso.
	</desc>
	<defs/>
	<path id="Path" d="M6 -0.4C4.26 -0.4 4.04 -0.4 3.36 -0.37C2.68 -0.34 2.21 -0.23 1.8 -0.07C1.38 0.09 1.03 0.31 0.67 0.67C0.31 1.02 0.09 1.38 -0.07 1.8C-0.23 2.21 -0.34 2.67 -0.37 3.36C-0.4 4.04 -0.4 4.26 -0.4 6C-0.4 7.73 -0.4 7.95 -0.37 8.63C-0.33 9.31 -0.23 9.78 -0.07 10.19C0.09 10.61 0.31 10.96 0.67 11.32C1.02 11.68 1.38 11.9 1.8 12.06C2.21 12.22 2.67 12.33 3.36 12.36C4.04 12.39 4.26 12.4 6 12.4C7.73 12.4 7.95 12.39 8.63 12.36C9.31 12.33 9.78 12.22 10.19 12.06C10.61 11.9 10.96 11.68 11.32 11.32C11.68 10.96 11.9 10.61 12.06 10.19C12.22 9.78 12.32 9.31 12.36 8.63C12.39 7.95 12.4 7.73 12.4 6C12.4 4.26 12.39 4.04 12.36 3.36C12.32 2.67 12.22 2.21 12.06 1.8C11.9 1.38 11.68 1.02 11.32 0.67C10.96 0.31 10.61 0.09 10.19 -0.07C9.78 -0.23 9.31 -0.34 8.63 -0.37C7.95 -0.4 7.73 -0.4 5.99 -0.4L6 -0.4ZM5.42 0.75C5.59 0.75 5.78 0.75 6 0.75C7.7 0.75 7.91 0.75 8.58 0.79C9.21 0.81 9.54 0.92 9.77 1.01C10.07 1.12 10.28 1.26 10.51 1.48C10.73 1.71 10.87 1.92 10.98 2.22C11.07 2.45 11.18 2.78 11.21 3.41C11.24 4.08 11.24 4.29 11.24 5.99C11.24 7.7 11.24 7.9 11.21 8.58C11.18 9.2 11.07 9.54 10.98 9.77C10.87 10.07 10.73 10.28 10.51 10.5C10.28 10.73 10.07 10.86 9.77 10.98C9.54 11.07 9.21 11.17 8.58 11.2C7.91 11.23 7.7 11.24 6 11.24C4.29 11.24 4.08 11.23 3.41 11.2C2.79 11.17 2.45 11.07 2.22 10.98C1.92 10.86 1.71 10.73 1.48 10.5C1.26 10.28 1.12 10.07 1.01 9.77C0.92 9.54 0.81 9.2 0.79 8.58C0.76 7.9 0.75 7.7 0.75 5.99C0.75 4.28 0.76 4.08 0.79 3.41C0.81 2.78 0.92 2.44 1.01 2.22C1.12 1.92 1.26 1.71 1.48 1.48C1.71 1.26 1.92 1.12 2.22 1C2.45 0.92 2.79 0.81 3.41 0.78C4 0.76 4.23 0.75 5.42 0.75L5.42 0.75ZM9.41 1.81C8.99 1.81 8.64 2.15 8.64 2.58C8.64 3 8.99 3.35 9.41 3.35C9.84 3.35 10.18 3 10.18 2.58C10.18 2.15 9.84 1.81 9.41 1.81ZM6 2.71C4.18 2.71 2.71 4.18 2.71 6C2.71 7.81 4.18 9.28 6 9.28C7.81 9.28 9.28 7.81 9.28 6C9.28 4.18 7.81 2.71 6 2.71ZM6 3.86C7.17 3.86 8.13 4.82 8.13 6C8.13 7.17 7.17 8.13 6 8.13C4.82 8.13 3.86 7.17 3.86 6C3.86 4.82 4.82 3.86 6 3.86Z" fill="#FFFFFF" fill-opacity="1.000000" fill-rule="evenodd"/>
</svg>
