<svg width="98.000000" height="34.000000" viewBox="0 0 98 34" fill="none" xmlns="http://www.w3.org/2000/svg" xmlns:xlink="http://www.w3.org/1999/xlink">
	<desc>
			Created with Pixso.
	</desc>
	<defs/>
	<path id="path2" d="M11.48 32.06L6.68 23.92L11.74 18.39L7.66 18.39L3.3 23.23L3.3 18.39L0 18.39L0 32.06L3.3 32.06L3.3 27.78L4.45 26.45L7.58 32.06L11.48 32.06Z" fill="#FFFFFF" fill-opacity="1.000000" fill-rule="evenodd"/>
	<path id="path4" d="M38.88 32.06L38.88 18.39L27.62 18.39L27.62 32.06L31.29 32.06L31.29 21.38L35.2 21.38L35.2 32.06L38.88 32.06Z" fill="#FFFFFF" fill-opacity="1.000000" fill-rule="evenodd"/>
	<path id="path6" d="M53.53 32.06L53.53 18.39L50.37 18.39L45.66 25.84L45.66 18.39L42.04 18.39L42.04 32.06L45.2 32.06L49.91 24.61L49.91 32.06L53.53 32.06Z" fill="#FFFFFF" fill-opacity="1.000000" fill-rule="evenodd"/>
	<path id="path8" d="M82.1 25.22L82.1 24.01C82.1 22.04 81.65 20.81 80.63 19.81C79.57 18.77 78.23 18.27 76.56 18.27C74.91 18.27 73.56 18.77 72.52 19.81C71.38 20.92 71.05 22.07 71.05 24.74L71.05 25.61C71.05 27.32 71.03 29.18 72.52 30.64C73.58 31.67 74.91 32.17 76.6 32.17C78.25 32.17 79.59 31.67 80.63 30.64C82.18 29.1 82.1 27.2 82.1 25.22ZM78.53 25.59C78.53 27.34 78.39 28.1 78 28.56C77.68 28.95 77.15 29.18 76.58 29.18C76.01 29.18 75.48 28.95 75.15 28.56C74.76 28.1 74.62 27.34 74.62 25.59L74.62 24.65C74.62 23.36 74.76 22.34 75.15 21.86C75.48 21.48 75.99 21.27 76.58 21.27C77.17 21.27 77.68 21.48 78 21.86C78.39 22.34 78.53 23.36 78.53 24.65L78.53 25.59Z" fill="#FFFFFF" fill-opacity="1.000000" fill-rule="evenodd"/>
	<path id="path10" d="M98 32.06L98 18.39L94.67 18.39L91.57 24.42L88.48 18.39L85.15 18.39L85.15 32.06L88.53 32.06L88.53 25.51L90.49 28.89L92.66 28.89L94.61 25.51L94.61 32.06L98 32.06Z" fill="#FFFFFF" fill-opacity="1.000000" fill-rule="evenodd"/>
	<path id="path12" d="M64.19 3.06L73.07 12.09L73.15 12C72.62 11.43 72.09 10.84 71.55 10.28C69.68 8.31 67.8 6.35 65.92 4.38C65.42 3.86 64.92 3.33 64.43 2.79C64.34 2.7 64.26 2.65 64.19 2.64C64.11 2.65 64.03 2.7 63.95 2.79C63.46 3.33 62.95 3.86 62.45 4.38C60.57 6.35 58.69 8.31 56.82 10.28C56.28 10.84 55.76 11.43 55.22 12L55.3 12.09L64.19 3.06ZM68.85 4.74C67.5 3.3 66.16 1.85 64.8 0.42C64.26 -0.15 64.11 -0.14 63.56 0.42C61.6 2.44 59.63 4.46 57.68 6.5C56.99 7.21 56.32 7.95 55.67 8.7C54.69 9.8 53.73 10.92 52.77 12.04C52.35 12.53 51.95 13.03 51.54 13.53L51.63 13.62C56.03 9.72 60.25 5.64 64.22 1.26C64.36 1.4 64.46 1.49 64.56 1.59C65.85 2.89 67.14 4.18 68.43 5.48C68.64 5.69 68.84 5.94 69.08 6.12C69.22 6.22 69.47 6.3 69.61 6.25C69.73 6.21 69.82 5.95 69.83 5.79L69.83 5.45L69.83 4.1L70.48 4.1C70.87 4.09 71.28 4.1 71.74 4.1C71.74 5.48 71.75 6.81 71.74 8.14C71.73 8.49 71.83 8.75 72.09 8.99C72.61 9.46 73.1 9.95 73.6 10.45C74.53 11.38 75.46 12.32 76.39 13.25C76.52 13.38 76.67 13.51 76.81 13.63C76.84 13.55 76.83 13.51 76.81 13.49C75.41 11.97 74.01 10.46 72.6 8.95C72.3 8.63 72.12 8.31 72.15 7.84C72.21 6.51 72.21 5.18 72.23 3.85C72.24 3.6 72.13 3.47 71.87 3.47C71.09 3.47 70.31 3.46 69.54 3.44C69.26 3.44 69.15 3.55 69.14 3.79L69.13 3.79L69.13 5.02C69.02 4.91 68.89 4.78 68.85 4.74ZM64.01 13.58L64.01 11.31L61.75 11.31L61.75 13.58L64.01 13.58ZM66.62 11.32L64.43 11.32L64.43 13.59L66.62 13.59L66.62 11.32ZM64.42 8.64L64.42 10.9L66.63 10.9L66.63 8.64L64.42 8.64ZM64 10.91L64 8.64L61.76 8.64L61.76 10.91L64 10.91Z" fill="#FFFFFF" fill-opacity="1.000000" fill-rule="evenodd"/>
	<path id="path14" d="M60.54 29.06C61.27 27.07 61.79 25.01 61.79 21.77L61.79 21.38L64.04 21.38L64.04 29.06L60.54 29.06ZM58.94 32.06L65.76 32.06L65.76 34L69.04 34L69.04 29.06L67.46 29.06L67.46 18.39L58.43 18.39L58.43 18.96C58.43 23.8 58 26.51 57.03 29.06L55.66 29.06L55.66 34L58.94 34L58.94 32.06Z" fill="#FFFFFF" fill-opacity="1.000000" fill-rule="evenodd"/>
	<path id="path16" d="M12.91 18.39L17.66 28.39L15.93 32.06L16.36 32.06L19.16 32.06L25.71 18.39L22.35 18.39L19.45 24.62L16.38 18.39L12.91 18.39Z" fill="#FFFFFF" fill-opacity="1.000000" fill-rule="evenodd"/>
</svg>
