<svg width="24.000000" height="24.000000" viewBox="0 0 24 24" fill="none" xmlns="http://www.w3.org/2000/svg" xmlns:xlink="http://www.w3.org/1999/xlink">
	<desc>
			Created with Pixso.
	</desc>
	<defs/>
	<rect id="location-icon" width="24.000000" height="24.000000" fill="#FFFFFF" fill-opacity="0"/>
	<path id="Location" d="M12.03 2C14.29 2.01001 16.45 2.90991 18.03 4.48999C19.62 6.08008 20.51 8.22998 20.5 10.46L20.5 10.51C20.4399 13.54 18.74 16.3301 16.62 18.51C15.42 19.74 14.09 20.8301 12.64 21.75C12.25 22.0801 11.6801 22.0801 11.29 21.75C9.14001 20.3501 7.23999 18.5901 5.69995 16.54C4.34998 14.76 3.57996 12.6201 3.5 10.3901C3.52002 5.73999 7.33997 1.98999 12.03 2ZM12.03 13.26C12.74 13.26 13.42 12.99 13.92 12.5C14.4399 11.99 14.731 11.311 14.731 10.6001C14.731 9.12012 13.52 7.92993 12.03 7.92993C10.54 7.92993 9.33997 9.12012 9.33997 10.6001C9.33997 12.061 10.52 13.24 12 13.26L12.03 13.26Z" clip-rule="evenodd" fill="#DE9C8E" fill-opacity="1.000000" fill-rule="evenodd"/>
</svg>
