<svg width="24.000000" height="24.000000" viewBox="0 0 24 24" fill="none" xmlns="http://www.w3.org/2000/svg" xmlns:xlink="http://www.w3.org/1999/xlink">
	<desc>
			Created with Pixso.
	</desc>
	<defs/>
	<rect id="phone-icon" width="24.000000" height="24.000000" fill="#FFFFFF" fill-opacity="0"/>
	<path id="Mobile" d="M5.03381 7.88794C5.02539 8.83008 5.00842 9.76221 5.00842 10.6946L5 12.1665C5 13.5012 5.01697 14.8162 5.03381 16.1018C5.03381 19.5168 7.16553 21.9998 10.1094 21.9998L13.8906 21.9998C16.8345 21.9998 18.9662 19.5168 18.9662 16.1116C18.9916 14.7476 19 13.3638 19 11.99C19 10.616 18.9916 9.25195 18.9662 7.88794C18.9662 4.48267 16.8345 1.99976 13.8906 1.99976L10.1094 1.99976C7.16553 1.99976 5.03381 4.48267 5.03381 7.88794ZM7.02417 7.82739C7.01807 8.4397 7.0061 9.04565 7.0061 9.65161L7 10.6084C7 11.4761 7.01208 12.3308 7.02417 13.1663C7.02417 15.3862 8.54688 17 10.6495 17L13.3505 17C15.4531 17 16.9758 15.3862 16.9758 13.1726C16.9939 12.2861 17 11.3867 17 10.4937C17 9.60059 16.9939 8.71387 16.9758 7.82739C16.9758 5.61377 15.4531 4 13.3505 4L10.6495 4C8.54688 4 7.02417 5.61377 7.02417 7.82739ZM13.28 19.6399L13.28 19.8C13.28 20.4736 12.7168 21 12 21C11.3003 21 10.72 20.4736 10.72 19.8L10.72 19.6399C10.72 18.9839 11.3003 18.4399 12 18.4399C12.7168 18.4399 13.28 18.9839 13.28 19.6399Z" clip-rule="evenodd" fill="#DE9C8E" fill-opacity="1.000000" fill-rule="evenodd"/>
</svg>
