<svg width="12.000000" height="9.000000" viewBox="0 0 12 9" fill="none" xmlns="http://www.w3.org/2000/svg" xmlns:xlink="http://www.w3.org/1999/xlink">
	<desc>
			Created with Pixso.
	</desc>
	<defs/>
	<path id="Path" d="M5.64 1.75L5.66 2.16L5.24 2.11C3.71 1.92 2.38 1.26 1.25 0.15L0.69 -0.4L0.55 0C0.25 0.91 0.44 1.87 1.07 2.51C1.41 2.87 1.33 2.92 0.75 2.71C0.55 2.64 0.37 2.59 0.36 2.61C0.3 2.67 0.5 3.44 0.66 3.75C0.88 4.17 1.32 4.59 1.81 4.83L2.22 5.03L1.73 5.04C1.26 5.04 1.25 5.05 1.3 5.22C1.46 5.77 2.13 6.36 2.87 6.61L3.39 6.79L2.93 7.06C2.26 7.45 1.47 7.67 0.68 7.69C0.31 7.7 0 7.73 0 7.76C0 7.84 1.02 8.32 1.61 8.5C3.4 9.05 5.53 8.82 7.12 7.88C8.25 7.21 9.39 5.88 9.92 4.59C10.2 3.9 10.49 2.65 10.49 2.05C10.49 1.66 10.51 1.6 10.98 1.14C11.26 0.87 11.52 0.57 11.57 0.49C11.65 0.33 11.65 0.33 11.22 0.47C10.5 0.72 10.4 0.69 10.76 0.31C11.02 0.04 11.33 -0.45 11.33 -0.6C11.33 -0.62 11.2 -0.58 11.06 -0.51C10.91 -0.42 10.57 -0.29 10.32 -0.22L9.87 -0.07L9.45 -0.35C9.23 -0.51 8.91 -0.67 8.74 -0.73C8.31 -0.84 7.66 -0.83 7.27 -0.69C6.22 -0.31 5.56 0.67 5.64 1.75Z" fill="#FFFFFF" fill-opacity="1.000000" fill-rule="evenodd"/>
</svg>
