<svg width="13.000000" height="9.000000" viewBox="0 0 13 9" fill="none" xmlns="http://www.w3.org/2000/svg" xmlns:xlink="http://www.w3.org/1999/xlink">
	<desc>
			Created with Pixso.
	</desc>
	<defs/>
	<path id="Path" d="M11 -0.13C11.55 0.02 11.98 0.47 12.13 1.03C12.4 2.06 12.4 4.2 12.4 4.2C12.4 4.2 12.4 6.33 12.13 7.36C11.98 7.92 11.55 8.37 11 8.52C10 8.8 6 8.8 6 8.8C6 8.8 1.99 8.8 0.99 8.52C0.44 8.37 0.01 7.92 -0.14 7.36C-0.4 6.33 -0.4 4.2 -0.4 4.2C-0.4 4.2 -0.4 2.06 -0.14 1.03C0.01 0.47 0.44 0.02 0.99 -0.13C1.99 -0.4 6 -0.4 6 -0.4C6 -0.4 10 -0.4 11 -0.13ZM4.8 2.4L4.8 6.4L8 4.4L4.8 2.4Z" fill="#FFFFFF" fill-opacity="1.000000" fill-rule="evenodd"/>
</svg>
